<?xml version="1.0" encoding="UTF-8"?>
<svg version="1.1" xmlns="http://www.w3.org/2000/svg" width="356" height="65">
<path d="M0 0 C21.78 0 43.56 0 66 0 C66 10 66 10 64.62304688 12.51220703 C63.68041992 13.37628174 63.68041992 13.37628174 62.71875 14.2578125 C62.04199219 14.90234375 61.36523438 15.546875 60.66796875 16.2109375 C59.95253906 16.84257812 59.23710937 17.47421875 58.5 18.125 C57.78457031 18.7953125 57.06914062 19.465625 56.33203125 20.15625 C54.57661088 21.79464234 52.79115618 23.40075341 51 25 C55.95 25.33 60.9 25.66 66 26 C66 38.87 66 51.74 66 65 C61.38 65 56.76 65 52 65 C52 56.42 52 47.84 52 39 C41.6127495 38.2561741 41.6127495 38.2561741 32.51318359 42.42626953 C29.16053426 45.58301508 26.15978024 49.05092726 23.1875 52.5625 C12.90247475 64.53936428 12.90247475 64.53936428 7.79150391 65.77685547 C5.07139408 65.77729048 2.65144277 65.58619109 0 65 C-0.54878109 61.43076236 -0.81830418 58.56202995 0 55 C2.93637863 51.18785933 6.32114956 48.08760662 10 45 C6.7 44.67 3.4 44.34 0 44 C0 29.48 0 14.96 0 0 Z M14 13 C14 22.24 14 31.48 14 41 C18.2845806 37.32750234 22.31480095 33.81271048 26.27734375 29.85546875 C27.20224609 28.93185547 28.12714844 28.00824219 29.08007812 27.05664062 C29.54873291 26.58589111 30.0173877 26.1151416 30.50024414 25.63012695 C31.95539571 24.16953741 33.41591857 22.71446797 34.87695312 21.25976562 C36.25077148 19.88401367 36.25077148 19.88401367 37.65234375 18.48046875 C38.48757568 17.64410889 39.32280762 16.80774902 40.18334961 15.94604492 C42.11373114 14.32186815 42.11373114 14.32186815 42 13 C32.76 13 23.52 13 14 13 Z " fill="#000000" transform="translate(72,0)"/>
<path d="M0 0 C21.45 0 42.9 0 65 0 C65 11 65 11 61.9375 15.13671875 C60.65224464 16.34984243 59.33867983 17.53359934 58 18.6875 C57.33226562 19.30560547 56.66453125 19.92371094 55.9765625 20.56054688 C54.34176383 22.06689707 52.67402364 23.53736455 51 25 C57.93 25.495 57.93 25.495 65 26 C65 38.87 65 51.74 65 65 C60.71 65 56.42 65 52 65 C52 56.42 52 47.84 52 39 C41.6127495 38.2561741 41.6127495 38.2561741 32.51318359 42.42626953 C29.16053426 45.58301508 26.15978024 49.05092726 23.1875 52.5625 C12.90247475 64.53936428 12.90247475 64.53936428 7.79150391 65.77685547 C5.07139408 65.77729048 2.65144277 65.58619109 0 65 C-0.54878109 61.43076236 -0.81830418 58.56202995 0 55 C2.93637863 51.18785933 6.32114956 48.08760662 10 45 C6.7 44.67 3.4 44.34 0 44 C0 29.48 0 14.96 0 0 Z M14 13 C14 22.24 14 31.48 14 41 C18.2845806 37.32750234 22.31480095 33.81271048 26.27734375 29.85546875 C27.20224609 28.93185547 28.12714844 28.00824219 29.08007812 27.05664062 C29.54873291 26.58589111 30.0173877 26.1151416 30.50024414 25.63012695 C31.95539571 24.16953741 33.41591857 22.71446797 34.87695312 21.25976562 C36.25077148 19.88401367 36.25077148 19.88401367 37.65234375 18.48046875 C38.48757568 17.64410889 39.32280762 16.80774902 40.18334961 15.94604492 C42.11373114 14.32186815 42.11373114 14.32186815 42 13 C32.76 13 23.52 13 14 13 Z " fill="#000000" transform="translate(291,0)"/>
<path d="M0 0 C11 0 11 0 14.04296875 1.96875 C14.75066406 2.8040625 15.45835937 3.639375 16.1875 4.5 C16.92355469 5.3353125 17.65960938 6.170625 18.41796875 7.03125 C18.94003906 7.6809375 19.46210938 8.330625 20 9 C20.33 6.03 20.66 3.06 21 0 C35.85 0 50.7 0 66 0 C66 21.45 66 42.9 66 65 C61.38 65 56.76 65 52 65 C52 47.84 52 30.68 52 13 C38.635 13.495 38.635 13.495 25 14 C27.475 16.000625 29.95 18.00125 32.5 20.0625 C37.48090207 24.55336653 40.37790098 28.3012159 40.99609375 35.1171875 C41.101206 40.79281094 40.65967355 46.36589919 40 52 C35.38 52 30.76 52 26 52 C26.04382813 50.88882813 26.08765625 49.77765625 26.1328125 48.6328125 C26.1328125 47.13020608 26.13005925 45.62759791 26.125 44.125 C26.16109375 43.39796875 26.1971875 42.6709375 26.234375 41.921875 C26.07790873 33.00329761 22.28669145 32.28669145 15 25 C14.67 38.2 14.34 51.4 14 65 C9.38 65 4.76 65 0 65 C0 43.55 0 22.1 0 0 Z " fill="#000000" transform="translate(145,0)"/>
<path d="M0 0 C2.3356909 0.08042923 4.67165099 0.15340282 7.0078125 0.21875 C12.67784261 0.39337049 18.33763351 0.65951682 24 1 C24.41057249 7.68320778 24.6877584 14.3631102 24.87890625 21.05615234 C24.95867158 23.32463967 25.06734694 25.59232291 25.20703125 27.85791016 C25.84852808 38.54166258 26.31413973 48.56303404 19.52709961 57.4173584 C13.47811285 63.92601403 7.64633605 66.76781454 -1.2097168 67.47766113 C-6.83050861 67.6225914 -12.39094047 67.33849149 -18 67 C-20.3356909 66.91957077 -22.67165099 66.84659718 -25.0078125 66.78125 C-30.67784261 66.60662951 -36.33763351 66.34048318 -42 66 C-42.41057249 59.31679222 -42.6877584 52.6368898 -42.87890625 45.94384766 C-42.95867158 43.67536033 -43.06734694 41.40767709 -43.20703125 39.14208984 C-43.84852808 28.45833742 -44.31413973 18.43696596 -37.52709961 9.5826416 C-26.96285597 -1.78439004 -14.50250353 -0.87518666 0 0 Z M-26.48608398 20.03881836 C-29.49876188 25.93154054 -28.92397601 32.1491427 -28.5625 38.5625 C-28.51726704 39.96666736 -28.4762179 41.37097603 -28.43945312 42.77539062 C-28.33393172 46.18724945 -28.18642521 49.59176479 -28 53 C-24.03555773 53.22475034 -20.07364019 53.38679372 -16.10424805 53.49438477 C-14.1013753 53.56120307 -12.10027292 53.67564961 -10.09960938 53.79101562 C-3.55439001 53.93939591 1.2454184 53.74353547 6.40625 49.4375 C11.6593603 43.18297508 10.99548668 36.11960964 10.5625 28.4375 C10.51726704 27.03333264 10.4762179 25.62902397 10.43945312 24.22460938 C10.33393172 20.81275055 10.18642521 17.40823521 10 14 C6.03555773 13.77524966 2.07364019 13.61320628 -1.89575195 13.50561523 C-3.8986247 13.43879693 -5.89972708 13.32435039 -7.90039062 13.20898438 C-15.88679382 13.02793241 -21.17590375 13.71634412 -26.48608398 20.03881836 Z " fill="#000000" transform="translate(260,-1)"/>
<path d="M0 0 C0 14.52 0 29.04 0 44 C-4.95 44.495 -4.95 44.495 -10 45 C-9.278125 45.60585938 -8.55625 46.21171875 -7.8125 46.8359375 C-0.32204594 53.59815297 -0.32204594 53.59815297 0.6640625 57.890625 C0.62915962 60.3338266 0.37039441 62.59097806 0 65 C-3.54453154 65.77059264 -6.45522754 65.8238758 -10 65 C-14.41429688 61.84714406 -17.97240002 57.97385421 -21.625 54 C-22.6369434 52.93783207 -23.65124949 51.87790983 -24.66796875 50.8203125 C-27.13981019 48.23891962 -29.57811459 45.62842247 -32 43 C-35.86755983 46.18032806 -39.44824631 49.39249699 -42.83203125 53.0859375 C-43.81333008 54.13974609 -43.81333008 54.13974609 -44.81445312 55.21484375 C-46.15286789 56.66184935 -47.47320714 58.12577369 -48.77539062 59.60546875 C-53.66631251 64.76943916 -53.66631251 64.76943916 -57.73974609 65.47363281 C-60.21016169 65.47624379 -62.55005231 65.28211278 -65 65 C-65.84483777 61.44012805 -65.8433685 58.56931373 -65 55 C-61.66951072 50.11813526 -57.52803166 46.11847182 -53.3203125 41.9921875 C-52.10969037 40.77482125 -50.90055536 39.55597448 -49.69284058 38.33572388 C-47.1614135 35.78958983 -44.61287991 33.26232686 -42.05078125 30.74707031 C-38.77690927 27.53017948 -35.55000786 24.27045266 -32.33464241 20.99520683 C-29.84752847 18.47185991 -27.33696315 15.97293583 -24.81878281 13.48062515 C-23.61942335 12.28791006 -22.42737468 11.08779437 -21.24307632 9.88012314 C-19.57985331 8.19132991 -17.8875938 6.53815379 -16.18408203 4.89013672 C-15.46657524 4.14226646 -15.46657524 4.14226646 -14.73457336 3.37928772 C-9.70819268 -1.34965828 -8.01556075 0 0 0 Z M-16.06640625 24.96875 C-16.89011719 25.8040625 -17.71382812 26.639375 -18.5625 27.5 C-19.38878906 28.3353125 -20.21507812 29.170625 -21.06640625 30.03125 C-22.02353516 31.00578125 -22.02353516 31.00578125 -23 32 C-22.0919838 33.13199353 -21.17316174 34.25532363 -20.25 35.375 C-19.48429687 36.31472656 -19.48429687 36.31472656 -18.703125 37.2734375 C-16.83809687 39.34987095 -16.83809687 39.34987095 -13 41 C-13 35.06 -13 29.12 -13 23 C-14.35501902 22.88503469 -14.35501902 22.88503469 -16.06640625 24.96875 Z " fill="#000000" transform="translate(65,0)"/>
</svg>
